<svg width="36" height="36" viewBox="0 0 36 36" fill="none" xmlns="http://www.w3.org/2000/svg">
<path d="M29.4 31.5L19.95 22.05C19.2 22.65 18.3375 23.125 17.3625 23.475C16.3875 23.825 15.35 24 14.25 24C11.525 24 9.219 23.056 7.332 21.168C5.445 19.28 4.501 16.974 4.5 14.25C4.499 11.526 5.443 9.22 7.332 7.332C9.221 5.444 11.527 4.5 14.25 4.5C16.973 4.5 19.2795 5.444 21.1695 7.332C23.0595 9.22 24.003 11.526 24 14.25C24 15.35 23.825 16.3875 23.475 17.3625C23.125 18.3375 22.65 19.2 22.05 19.95L31.5 29.4L29.4 31.5ZM14.25 21C16.125 21 17.719 20.344 19.032 19.032C20.345 17.72 21.001 16.126 21 14.25C20.999 12.374 20.343 10.7805 19.032 9.4695C17.721 8.1585 16.127 7.502 14.25 7.5C12.373 7.498 10.7795 8.1545 9.4695 9.4695C8.1595 10.7845 7.503 12.378 7.5 14.25C7.497 16.122 8.1535 17.716 9.4695 19.032C10.7855 20.348 12.379 21.004 14.25 21Z" fill="black"/>
</svg>
