<svg width="36" height="36" viewBox="0 0 36 36" fill="none" xmlns="http://www.w3.org/2000/svg">
<path d="M23.325 19.5C24.45 19.5 25.44 18.885 25.95 17.955L31.32 8.22C31.4464 7.99264 31.5113 7.73621 31.5082 7.47608C31.505 7.21596 31.434 6.96116 31.3022 6.73689C31.1704 6.51263 30.9823 6.32667 30.7565 6.19743C30.5307 6.06818 30.2751 6.00013 30.015 6H7.815L6.405 3H1.5V6H4.5L9.9 17.385L7.875 21.045C6.78 23.055 8.22 25.5 10.5 25.5H28.5V22.5H10.5L12.15 19.5H23.325ZM9.24 9H27.465L23.325 16.5H12.795L9.24 9ZM10.5 27C8.85 27 7.515 28.35 7.515 30C7.515 31.65 8.85 33 10.5 33C12.15 33 13.5 31.65 13.5 30C13.5 28.35 12.15 27 10.5 27ZM25.5 27C23.85 27 22.515 28.35 22.515 30C22.515 31.65 23.85 33 25.5 33C27.15 33 28.5 31.65 28.5 30C28.5 28.35 27.15 27 25.5 27Z" fill="black"/>
</svg>
